<?xml version="1.0" encoding="UTF-8" standalone="no"?>
<!-- Created with Inkscape (http://www.inkscape.org/) -->

<svg
   width="512"
   height="512"
   viewBox="0 0 512 512"
   version="1.1"
   id="svg1"
   inkscape:version="1.4 (86a8ad7, 2024-10-11)"
   sodipodi:docname="coin.svg"
   inkscape:export-filename="export\ic_coin.svg"
   inkscape:export-xdpi="96"
   inkscape:export-ydpi="96"
   xmlns:inkscape="http://www.inkscape.org/namespaces/inkscape"
   xmlns:sodipodi="http://sodipodi.sourceforge.net/DTD/sodipodi-0.dtd"
   xmlns:xlink="http://www.w3.org/1999/xlink"
   xmlns="http://www.w3.org/2000/svg"
   xmlns:svg="http://www.w3.org/2000/svg">
  <sodipodi:namedview
     id="namedview1"
     pagecolor="#505050"
     bordercolor="#a1a1a1"
     borderopacity="1"
     inkscape:showpageshadow="0"
     inkscape:pageopacity="0"
     inkscape:pagecheckerboard="1"
     inkscape:deskcolor="#000000"
     inkscape:document-units="px"
     inkscape:zoom="1"
     inkscape:cx="196"
     inkscape:cy="236.5"
     inkscape:window-width="1920"
     inkscape:window-height="1017"
     inkscape:window-x="-8"
     inkscape:window-y="-8"
     inkscape:window-maximized="1"
     inkscape:current-layer="layer1"
     showgrid="true">
    <inkscape:grid
       id="grid1"
       units="px"
       originx="0"
       originy="0"
       spacingx="8"
       spacingy="8"
       empcolor="#0099e5"
       empopacity="0.30196078"
       color="#0099e5"
       opacity="0.14901961"
       empspacing="8"
       enabled="true"
       visible="true" />
  </sodipodi:namedview>
  <defs
     id="defs1">
    <linearGradient
       id="linearGradient14"
       inkscape:collect="always">
      <stop
         style="stop-color:#ffd200;stop-opacity:1;"
         offset="0"
         id="stop14" />
      <stop
         style="stop-color:#ffaf00;stop-opacity:1;"
         offset="1"
         id="stop15" />
    </linearGradient>
    <linearGradient
       id="linearGradient9"
       inkscape:collect="always">
      <stop
         style="stop-color:#bb8400;stop-opacity:1;"
         offset="0.17870723"
         id="stop9" />
      <stop
         style="stop-color:#ffe46c;stop-opacity:1;"
         offset="0.85741442"
         id="stop10" />
    </linearGradient>
    <inkscape:path-effect
       effect="mirror_symmetry"
       start_point="256,56"
       end_point="256,568"
       center_point="256,312"
       id="path-effect9"
       is_visible="true"
       lpeversion="1.2"
       lpesatellites=""
       mode="vertical"
       discard_orig_path="false"
       fuse_paths="false"
       oposite_fuse="false"
       split_items="false"
       split_open="false"
       link_styles="false" />
    <inkscape:path-effect
       effect="bool_op"
       operand-path="#path2"
       id="path-effect8"
       is_visible="true"
       lpeversion="1"
       operation="diff"
       swap-operands="false"
       filltype-this="from-curve"
       filter=""
       filltype-operand="from-curve" />
    <inkscape:path-effect
       effect="bool_op"
       operand-path=""
       id="path-effect7"
       is_visible="true"
       lpeversion="1"
       operation="diff"
       swap-operands="false"
       filltype-this="from-curve"
       filter=""
       filltype-operand="from-curve" />
    <inkscape:path-effect
       effect="bool_op"
       operand-path="#path2"
       id="path-effect6"
       is_visible="true"
       lpeversion="1"
       operation="diff"
       swap-operands="false"
       filltype-this="from-curve"
       filter=""
       filltype-operand="from-curve" />
    <filter
       id="selectable_hidder_filter"
       width="1"
       height="1"
       x="0"
       y="0"
       style="color-interpolation-filters:sRGB;"
       inkscape:label="LPE boolean visibility">
      <feComposite
         id="boolops_hidder_primitive"
         result="composite1"
         operator="arithmetic"
         in2="SourceGraphic"
         in="BackgroundImage" />
    </filter>
    <inkscape:path-effect
       effect="bool_op"
       operand-path="#path4"
       id="path-effect5"
       is_visible="true"
       lpeversion="1"
       operation="cut"
       swap-operands="false"
       filltype-this="oddeven"
       filter=""
       filltype-operand="from-curve" />
    <inkscape:path-effect
       effect="mirror_symmetry"
       start_point="256,0"
       end_point="256,512"
       center_point="256,256"
       id="path-effect4"
       is_visible="true"
       lpeversion="1.2"
       lpesatellites=""
       mode="vertical"
       discard_orig_path="false"
       fuse_paths="false"
       oposite_fuse="false"
       split_items="false"
       split_open="false"
       link_styles="false" />
    <inkscape:path-effect
       effect="mirror_symmetry"
       start_point="256,56"
       end_point="256,568"
       center_point="256,312"
       id="path-effect3"
       is_visible="true"
       lpeversion="1.2"
       lpesatellites=""
       mode="vertical"
       discard_orig_path="false"
       fuse_paths="false"
       oposite_fuse="false"
       split_items="false"
       split_open="false"
       link_styles="false" />
    <inkscape:path-effect
       effect="perspective-envelope"
       up_left_point="96,80"
       up_right_point="416,48"
       down_left_point="96,432"
       down_right_point="416,464"
       id="path-effect1"
       is_visible="false"
       lpeversion="1"
       deform_type="perspective"
       horizontal_mirror="false"
       vertical_mirror="false"
       overflow_perspective="false" />
    <linearGradient
       inkscape:collect="always"
       xlink:href="#linearGradient9"
       id="linearGradient10"
       x1="448"
       y1="448"
       x2="64"
       y2="64"
       gradientUnits="userSpaceOnUse" />
    <linearGradient
       inkscape:collect="always"
       xlink:href="#linearGradient14"
       id="linearGradient13"
       x1="256"
       y1="432"
       x2="256"
       y2="88"
       gradientUnits="userSpaceOnUse" />
  </defs>
  <g
     inkscape:label="coin"
     inkscape:groupmode="layer"
     id="layer1"
     style="fill:#ffd42a">
    <path
       style="fill:url(#linearGradient10);fill-opacity:1"
       id="path1"
       inkscape:label="coin"
       sodipodi:type="arc"
       sodipodi:cx="256"
       sodipodi:cy="256"
       sodipodi:rx="192"
       sodipodi:ry="192" />
    <circle
       style="fill:url(#linearGradient13);fill-opacity:1"
       id="path9"
       inkscape:label="coin"
       cx="256"
       cy="256"
       r="176" />
    <path
       id="path2"
       style="fill:#c98516"
       inkscape:label="head"
       d="m 256,256 c 0,0 -64,0 -64,64 -16,64 64,64 64,64 v -8 c 0,0 -16,0 -16,-16 0,-40 16,-40 16,-40 z m 0,0 c 0,0 64,0 64,64 16,64 -64,64 -64,64 v -8 c 0,0 16,0 16,-16 0,-40 -16,-40 -16,-40 z"
       inkscape:path-effect="#path-effect9"
       inkscape:original-d="m 256,256 c 0,0 -64,0 -64,64 -16,64 64,64 64,64 v -8 c 0,0 -16,0 -16,-16 0,-40 16,-40 16,-40 z"
       transform="translate(0,-56)" />
    <path
       id="path3"
       style="fill:#c98516"
       inkscape:label="ear"
       d="m 240,296 c 0,26.50967 -17.94262,25.29508 -40,40 -24,16 -56,-5.49033 -56,-32 0,-32 24,-59.30222 48,-56 44.49103,6.12164 48,21.49033 48,48 z m 32,0 c 0,26.50967 17.94262,25.29508 40,40 24,16 56,-5.49033 56,-32 0,-32 -24,-59.30222 -48,-56 -44.49103,6.12164 -48,21.49033 -48,48 z"
       sodipodi:nodetypes="sssss"
       inkscape:path-effect="#path-effect3"
       inkscape:original-d="m 240,296 c 0,26.50967 -17.94262,25.29508 -40,40 -24,16 -56,-5.49033 -56,-32 0,-32 24,-59.30222 48,-56 44.49103,6.12164 48,21.49033 48,48 z"
       transform="translate(0,-56)" />
    <path
       id="circle10"
       style="fill:#ffffff;fill-opacity:1"
       inkscape:label="coin"
       d="M 256 80 A 176 176 0 0 0 80 256 A 176 176 0 0 0 130.98828 379.25586 A 176 176 0 0 1 88 264 A 176 176 0 0 1 264 88 A 176 176 0 0 1 384.35352 135.64648 A 176 176 0 0 0 256 80 z " />
    <path
       id="circle11"
       style="fill:#904b00;fill-opacity:1"
       inkscape:label="coin"
       d="M 376.35352 127.64648 A 176 176 0 0 1 424 248 A 176 176 0 0 1 248 424 A 176 176 0 0 1 132.74414 381.01172 A 176 176 0 0 0 256 432 A 176 176 0 0 0 432 256 A 176 176 0 0 0 376.35352 127.64648 z " />
  </g>
</svg>
