<?xml version="1.0" encoding="UTF-8" standalone="no"?>
<!-- Created with Inkscape (http://www.inkscape.org/) -->

<svg
   width="512"
   height="512"
   viewBox="0 0 512 512"
   version="1.1"
   id="svg1"
   xmlns:xlink="http://www.w3.org/1999/xlink"
   xmlns="http://www.w3.org/2000/svg"
   xmlns:svg="http://www.w3.org/2000/svg">
  <defs
     id="defs1">
    <linearGradient
       id="linearGradient14">
      <stop
         style="stop-color:#ffd200;stop-opacity:1;"
         offset="0"
         id="stop14" />
      <stop
         style="stop-color:#ffaf00;stop-opacity:1;"
         offset="1"
         id="stop15" />
    </linearGradient>
    <linearGradient
       id="linearGradient9">
      <stop
         style="stop-color:#bb8400;stop-opacity:1;"
         offset="0.17870723"
         id="stop9" />
      <stop
         style="stop-color:#ffe46c;stop-opacity:1;"
         offset="0.85741442"
         id="stop10" />
    </linearGradient>
    <linearGradient
       xlink:href="#linearGradient9"
       id="linearGradient10"
       x1="448"
       y1="448"
       x2="64"
       y2="64"
       gradientUnits="userSpaceOnUse" />
    <linearGradient
       xlink:href="#linearGradient14"
       id="linearGradient13"
       x1="256"
       y1="432"
       x2="256"
       y2="88"
       gradientUnits="userSpaceOnUse" />
  </defs>
  <g
     id="layer1"
     style="fill:#ffd42a">
    <circle
       style="fill:url(#linearGradient10);fill-opacity:1"
       id="path1"
       cx="256"
       cy="256"
       r="192" />
    <circle
       style="fill:url(#linearGradient13);fill-opacity:1"
       id="path9"
       cx="256"
       cy="256"
       r="176" />
    <path
       id="path2"
       style="fill:#c98516"
       d="m 256,256 c 0,0 -64,0 -64,64 -16,64 64,64 64,64 v -8 c 0,0 -16,0 -16,-16 0,-40 16,-40 16,-40 z m 0,0 c 0,0 64,0 64,64 16,64 -64,64 -64,64 v -8 c 0,0 16,0 16,-16 0,-40 -16,-40 -16,-40 z"
       transform="translate(0,-56)" />
    <path
       id="path3"
       style="fill:#c98516"
       d="m 240,296 c 0,26.50967 -17.94262,25.29508 -40,40 -24,16 -56,-5.49033 -56,-32 0,-32 24,-59.30222 48,-56 44.49103,6.12164 48,21.49033 48,48 z m 32,0 c 0,26.50967 17.94262,25.29508 40,40 24,16 56,-5.49033 56,-32 0,-32 -24,-59.30222 -48,-56 -44.49103,6.12164 -48,21.49033 -48,48 z"
       transform="translate(0,-56)" />
    <path
       id="circle10"
       style="fill:#ffffff;fill-opacity:1"
       d="M 256,80 A 176,176 0 0 0 80,256 176,176 0 0 0 130.98828,379.25586 176,176 0 0 1 88,264 176,176 0 0 1 264,88 176,176 0 0 1 384.35352,135.64648 176,176 0 0 0 256,80 Z" />
    <path
       id="circle11"
       style="fill:#904b00;fill-opacity:1"
       d="M 376.35352,127.64648 A 176,176 0 0 1 424,248 176,176 0 0 1 248,424 176,176 0 0 1 132.74414,381.01172 176,176 0 0 0 256,432 176,176 0 0 0 432,256 176,176 0 0 0 376.35352,127.64648 Z" />
  </g>
</svg>
