<?xml version="1.0" encoding="UTF-8" standalone="no"?>
<!-- Created with Inkscape (http://www.inkscape.org/) -->

<svg
   width="512"
   height="512"
   viewBox="0 0 10.666667 10.666667"
   version="1.1"
   id="svg1"
   xmlns="http://www.w3.org/2000/svg"
   xmlns:svg="http://www.w3.org/2000/svg">
  <defs
     id="defs1" />
  <g
     id="layer1">
    <g
       id="layer1-5"
       style="display:inline"
       transform="translate(0,1.333326)">
      <path
         style="fill:#d2e0e4;fill-opacity:1;stroke-width:0.124331"
         d="m 4.313571,4.4471431 c 0,-0.4901161 -1.0329386,-1.4703485 -2.0658762,-0.9802322 -0.7747041,0.490116 -0.7747041,1.7154063 -5e-7,2.2055224 0.6077276,0.3844788 1.0918586,0.144734 1.5494072,0 z m 2.0658753,0 c 0,-0.4901161 1.0329386,-1.4703485 2.0658762,-0.9802322 0.7747044,0.490116 0.7747044,1.7154063 5e-7,2.2055224 -0.6077275,0.3844788 -1.0918585,0.144734 -1.5494071,0 z"
         id="path9-5"
         transform="translate(0,-1.333326)" />
      <path
         style="display:inline;fill:#94a9ae;fill-opacity:1;stroke-width:0.124331"
         d="M 4.4237406,4.8064108 C 3.7135957,3.7602259 2.5638371,3.9487075 2.5638371,4.6838817 c 0,0.9802322 1.3864735,0.9594771 1.6231885,0.5410031 z m 2.3671498,0 C 7.5010353,3.7602259 8.6507939,3.9487075 8.6507939,4.6838817 c 0,0.9802322 -1.3864735,0.9594771 -1.6231885,0.5410031 z"
         id="path16-1"
         transform="matrix(1.0909091,0,0,1.1711986,-0.77056285,-2.2703866)" />
      <path
         style="display:inline;fill:#d2e0e4;fill-opacity:1;stroke-width:0.150144"
         d="m 5.3465082,3.9570266 c -1.8076412,3e-7 -2.0658753,1.960465 -2.0658753,1.960465 -5e-7,0.490116 0,1.4703484 2.0658762,1.4703484 z m 9e-7,0 c 1.8076413,3e-7 2.0658754,1.960465 2.0658754,1.960465 4e-7,0.490116 0,1.4703484 -2.0658763,1.4703484 z"
         id="path8-7"
         transform="translate(0,-1.333326)" />
      <path
         style="fill:#d2e0e4;fill-opacity:1;stroke-width:0.124331"
         d="M 4.9632632,2.868759 C 5.4042999,2.2561083 6.1825818,2.308247 6.1825818,2.308247 c 0,0 -0.1783473,0.053936 -0.4365818,0.5440518 -0.099454,0.1887592 -0.1412568,0.01646 -0.1412568,0.01646 z"
         id="path14-1" />
      <path
         style="display:inline;fill:#626f7b;fill-opacity:1;stroke-width:0.124331"
         d="m 5.3465087,5.1823172 c -0.2582346,0 -0.5164691,0.2450581 -0.5164691,0.9802323 0,0.2450581 0,0.4901161 0.5164691,0.4901161 z m 0,0 c 0.2582345,0 0.516469,0.2450581 0.516469,0.9802323 0,0.2450581 0,0.4901161 -0.516469,0.4901161 z"
         id="path15-1"
         transform="translate(0,-1.333326)" />
      <g
         id="g41"
         style="display:inline">
        <path
           style="fill:#000000;stroke-width:0.0208333"
           id="path1"
           d="m 4.3135696,5.6160106 c 0,0.1353418 -0.1156156,0.245058 -0.2582346,0.245058 -0.1426189,0 -0.2582345,-0.1097162 -0.2582345,-0.245058 0,-0.1353418 0.1156156,-0.245058 0.2582345,-0.245058 0.142619,0 0.2582346,0.1097162 0.2582346,0.245058 z m 2.0658763,0 c 0,0.1353418 0.1156155,0.245058 0.2582345,0.245058 0.142619,0 0.2582345,-0.1097162 0.2582345,-0.245058 0,-0.1353418 -0.1156155,-0.245058 -0.2582345,-0.245058 -0.142619,0 -0.2582345,0.1097162 -0.2582345,0.245058 z"
           transform="translate(9.5367443e-7,-1.1543795)" />
        <path
           style="display:inline;fill:#ffffff;stroke-width:0.0208333"
           id="ellipse42"
           transform="translate(-0.12131372,-1.2958006)"
           d="m 4.1766497,5.6534678 c 0,0.057418 -0.037819,0.1039637 -0.08447,0.1039637 -0.046652,0 -0.084471,-0.046546 -0.084471,-0.1039637 0,-0.057417 0.037819,-0.1039637 0.084471,-0.1039637 0.046652,0 0.08447,0.046546 0.08447,0.1039637 z" />
        <path
           style="display:inline;fill:#ffffff;stroke-width:0.0208333"
           id="path39-8"
           d="m 6.6376815,4.3576672 c 0,0.057418 -0.037819,0.1039637 -0.084471,0.1039637 -0.046652,0 -0.084471,-0.046546 -0.084471,-0.1039637 0,-0.057418 0.037819,-0.1039637 0.084471,-0.1039637 0.046652,0 0.084471,0.046546 0.084471,0.1039637 z" />
      </g>
      <path
         style="display:inline;opacity:0;fill:#000000;fill-opacity:1;stroke-width:0.0208333"
         id="rect4"
         height="0.16666664"
         x="3.0000002"
         y="5.5"
         width="0.99999982"
         d="m 3.5282341,5.5454826 0.774391,-0.0035 -5.834e-4,0.1225811 -0.774391,0.0035 z M 7.0143372,5.2343123 6.2515684,5.368019 6.2738529,5.4885589 7.0366216,5.3548522 Z"
         transform="rotate(5.1007149,19.800068,5.588852)" />
      <path
         style="fill:#d2e0e4;fill-opacity:1;stroke-width:0.124331"
         d="M 5.8306627,3.1591819 C 5.5724281,2.4240077 4.5435964,2.5073275 4.5435964,2.5073275 c 0,0 0.2582342,0.098559 0.5164686,0.5886753 0.099454,0.1887592 0.1291177,0.063179 0.1291177,0.063179 z"
         id="path42" />
    </g>
    <g
       id="g71"
       transform="translate(-0.75323117,0.37212916)"
       style="display:inline">
      <path
         id="path70"
         style="fill:#7798bd;fill-opacity:1;stroke-width:0.124331"
         d="M 6.4870916,6.4030601 6.2278457,6.7702509 6.5977893,6.9809465 C 6.7824206,7.0861003 6.5885075,7.362532 6.9579232,7.5724519 7.1615573,7.6881667 7.441273,7.616735 7.5826324,7.4134827 7.7236579,7.2107106 7.6738463,6.952991 7.4714293,6.8372749 L 6.7361202,6.4169196 Z" />
      <path
         style="fill:#ffffff;fill-opacity:1;stroke-width:0.124331"
         d="M 7.4554489,6.860154 7.2537587,6.8730713 7.0239354,6.7418105 7.2260083,6.7290138 Z"
         id="path71" />
    </g>
  </g>
</svg>
