<?xml version="1.0" encoding="UTF-8" standalone="no"?>
<!-- Created with Inkscape (http://www.inkscape.org/) -->

<svg
   width="512"
   height="512"
   viewBox="0 0 10.666667 10.666667"
   version="1.1"
   id="svg1"
   xmlns="http://www.w3.org/2000/svg"
   xmlns:svg="http://www.w3.org/2000/svg">
  <defs
     id="defs1" />
  <g
     id="g46"
     style="display:inline">
    <path
       style="display:inline;fill:#94a9ae;fill-opacity:1;stroke-width:0.0208333"
       d="M 5.3333335,10 C 4.0000004,10 3.2504151,9.8922381 3.3333334,9.2307483 3.448595,8.3112365 3.4485856,7.8214032 3.6276043,7.1666669 3.7815486,6.6036369 4.0000001,6.3974149 4.0000001,6.3974149 l 1.3333334,-0.230748 z m 0,0 C 6.6666666,10 7.4162519,9.8922381 7.3333336,9.2307483 7.218072,8.3112365 7.2180814,7.8214032 7.0390627,7.1666669 6.8851184,6.6036369 6.6666669,6.3974149 6.6666669,6.3974149 L 5.3333335,6.1666669 Z"
       id="path37" />
    <path
       style="display:inline;fill:#d2e0e4;fill-opacity:1;stroke-width:0.0208333"
       d="m 5.3333335,7.5000002 c -0.3591133,0 -0.6666667,-0.2897973 -0.6666667,-0.5118446 0.029948,-0.1916277 0.2779948,-0.1418012 0.2779948,-0.1418012 0,0 0.2220052,0.051432 0.3886719,0.051432 z m 0,0 c 0.3591133,0 0.6666667,-0.2897973 0.6666667,-0.5118446 C 5.9700522,6.7965279 5.7220054,6.8463544 5.7220054,6.8463544 c 0,0 -0.2220052,0.051432 -0.3886719,0.051432 z"
       id="path50" />
    <g
       id="g52"
       transform="rotate(-179.93032,5.2595557,6.9531415)"
       style="display:none">
      <path
         style="fill:#94a9ae;fill-opacity:1;stroke-width:0.0208333"
         d="m 4.8980008,7.2431253 c 0,0 0.1195901,-0.3333333 0.5,-0.3892919 -0.1666666,0.2226252 -0.097522,0.3857332 -0.097522,0.3857332 z"
         id="path54" />
      <path
         style="fill:#94a9ae;fill-opacity:1;stroke-width:0.0208333"
         d="m 5.0112848,7.3461073 c 0,0 0.1195901,-0.3333333 0.5,-0.3892919 -0.1666666,0.2226252 -0.097522,0.3857332 -0.097522,0.3857332 z"
         id="path55" />
      <path
         style="fill:#94a9ae;fill-opacity:1;stroke-width:0.0208333"
         d="m 5.1679029,6.1539079 c 0,0 -0.029242,0.3529275 -0.3822068,0.5054367 0.103368,-0.258176 -0.00564,-0.3978302 -0.00564,-0.3978302 z"
         id="path56" />
      <path
         style="fill:#94a9ae;fill-opacity:1;stroke-width:0.0208333"
         d="m 5.8941036,6.5312335 c 0,0 -0.3023299,0.1844167 -0.6335862,-0.010807 0.2694849,-0.068685 0.3180404,-0.2390628 0.3180404,-0.2390628 z"
         id="path57" />
      <path
         style="fill:#94a9ae;fill-opacity:1;stroke-width:0.0208333"
         d="m 4.1848414,6.8729664 c 0,0 0.3396893,-0.1001205 0.6093205,0.1740027 -0.2780816,-0.00321 -0.3689741,0.1488588 -0.3689741,0.1488588 z"
         id="path58" />
      <path
         style="fill:#94a9ae;fill-opacity:1;stroke-width:0.0208333"
         d="m 6.0927655,7.3624183 c 0,0 -0.3220498,-0.1472987 -0.3456968,-0.5310764 0.2077624,0.1848634 0.3761267,0.1297287 0.3761267,0.1297287 z"
         id="path59" />
    </g>
    <path
       style="display:inline;fill:#f4f8f8;fill-opacity:1;stroke-width:0.0208333"
       d="M 3.270378,8.9474962 C 3.1623889,8.7619665 3.2817366,8.5880247 3.4370447,7.7808295 c 0.2706561,-0.065104 0.4596549,-0.1532674 0.5,-0.3333334 l 0.2296221,-1.0248357 0.2518004,-0.00368 c 0,0 -0.085134,0.7476894 0.2481996,1.0810227 0.1666667,0.1666667 0.6666667,0.1602581 0.6666667,0.1602581 V 9.5791459 C 4.3041092,9.5511848 3.6397305,9.4117094 3.270378,8.9474962 Z m 4.125911,0 C 7.5042781,8.7619665 7.3849304,8.5880247 7.2296223,7.7808295 6.9589662,7.7157255 6.7699674,7.6275621 6.7296223,7.4474961 L 6.5000002,6.4226604 6.2481998,6.4189804 c 0,0 0.085134,0.7476894 -0.2481996,1.0810227 C 5.8333335,7.6666698 5.3333335,7.6602612 5.3333335,7.6602612 V 9.5791459 C 6.3625578,9.5511848 7.0269365,9.4117094 7.396289,8.9474962 Z"
       id="path48" />
    <path
       style="display:inline;fill:#626f7b;fill-opacity:1;stroke-width:0.0208333"
       id="path38"
       d="m 5.0000002,9.333334 c 0,0.4602371 -0.4104056,0.833333 -0.9166667,0.833333 -0.5062611,0 -0.9166668,-0.3730959 -0.9166668,-0.833333 0,-0.4602372 0.4104057,-0.8333331 0.9166668,-0.8333331 0.5062611,0 0.9166667,0.3730959 0.9166667,0.8333331 z m 0.6666667,0 c 0,0.4602371 0.4104057,0.833333 0.9166668,0.833333 0.5062611,0 0.9166667,-0.3730959 0.9166667,-0.833333 0,-0.4602372 -0.4104056,-0.8333331 -0.9166667,-0.8333331 -0.5062611,0 -0.9166668,0.3730959 -0.9166668,0.8333331 z"
       transform="translate(-8.9406944e-8,0.16666631)" />
    <g
       id="g60"
       style="display:inline">
      <path
         id="ellipse38"
         style="display:inline;fill:#d2e0e4;stroke-width:0.0208333"
         d="m 4.0885418,8.3333336 c 0,0.3681899 -0.2552084,0.5520833 -0.5885417,0.6666667 -0.348192,0.119691 -0.649834,-0.2179867 -0.6041657,-0.5833334 0.041667,-0.3333334 0.2181578,-0.5224406 0.5863474,-0.5224406 0.3681896,0 0.60636,0.070917 0.60636,0.4391073 z m 2.4895834,0 c 0,0.3681899 0.2552084,0.5520833 0.5885417,0.6666667 0.348192,0.119691 0.649834,-0.2179867 0.6041657,-0.5833334 C 7.7291656,8.0833335 7.5526748,7.8942263 7.1844852,7.8942263 c -0.3681896,0 -0.60636,0.070917 -0.60636,0.4391073 z" />
      <path
         style="fill:#94a9ae;fill-opacity:1;stroke-width:0.0208333"
         d="m 3.0000001,8.5963544 c -0.045657,0.07894 0.03083,0.2914859 0.1666667,0.3308843 C 3.3965809,8.9939237 3.8333334,8.8333336 3.938338,8.6115049 3.7749809,8.6666672 3.2865978,8.8742598 3.0000001,8.5963544 Z m 4.6666668,0 c 0.045657,0.07894 -0.03083,0.2914859 -0.1666667,0.3308843 C 7.2700861,8.9939237 6.8333336,8.8333336 6.728329,8.6115049 6.8916861,8.6666672 7.3800692,8.8742598 7.6666669,8.5963544 Z"
         id="path60" />
    </g>
  </g>
  <g
     id="layer2">
    <g
       id="layer1"
       style="display:none">
      <path
         style="fill:#d2e0e4;fill-opacity:1;stroke-width:0.124331"
         d="m 4.0000007,4.0000003 c 0,-0.6666667 -1.333334,-2.0000002 -2.6666667,-1.3333333 -1.00000066,0.6666664 -1.00000066,2.3333331 -6e-7,2.9999998 0.7844646,0.5229764 1.4093888,0.1968704 2,0 z m 2.6666656,0 c 0,-0.6666667 1.333334,-2.0000002 2.6666667,-1.3333333 1.000001,0.6666664 1.000001,2.3333331 6e-7,2.9999998 -0.7844646,0.5229764 -1.4093888,0.1968704 -2,0 z"
         id="path9"
         transform="translate(0,-1.333326)" />
      <path
         style="display:inline;fill:#94a9ae;fill-opacity:1;stroke-width:0.124331"
         d="M 4.0674605,4.5000002 C 3.1507938,3.0769566 1.6666667,3.3333334 1.6666667,4.3333335 c 0,1.3333333 1.7896826,1.3051017 2.0952382,0.7358842 z m 3.0555555,0 C 8.0396827,3.0769566 9.5238098,3.3333334 9.5238098,4.3333335 c 0,1.3333333 -1.7896826,1.3051017 -2.0952382,0.7358842 z"
         id="path16"
         transform="matrix(1.0909091,0,0,1.1711986,-0.77056285,-2.2703866)" />
      <path
         style="display:inline;fill:#d2e0e4;fill-opacity:1;stroke-width:0.150144"
         d="m 5.3333329,3.3333331 c -2.3333328,3e-7 -2.6666656,2.6666673 -2.6666656,2.6666673 -6e-7,0.6666665 0,2.0000001 2.6666668,2.0000001 z m 1.2e-6,0 c 2.3333328,3e-7 2.6666656,2.6666673 2.6666656,2.6666673 6e-7,0.6666665 0,2.0000001 -2.6666668,2.0000001 z"
         id="path8"
         transform="translate(0,-1.333326)" />
      <path
         style="fill:#d2e0e4;fill-opacity:1;stroke-width:0.124331"
         d="M 4.838634,2.3333408 C 5.4079314,1.5 6.4125504,1.5709201 6.4125504,1.5709201 c 0,0 -0.2302137,0.073365 -0.563547,0.7400312 -0.1283772,0.2567544 -0.1823366,0.02239 -0.1823366,0.02239 z"
         id="path14" />
      <path
         style="display:inline;fill:#626f7b;fill-opacity:1;stroke-width:0.124331"
         d="m 5.3333335,5.0000001 c -0.3333334,0 -0.6666667,0.3333334 -0.6666667,1.3333334 0,0.3333334 0,0.6666667 0.6666667,0.6666667 z m 0,0 c 0.3333334,0 0.6666667,0.3333334 0.6666667,1.3333334 0,0.3333334 0,0.6666667 -0.6666667,0.6666667 z"
         id="path15"
         transform="translate(0,-1.333326)" />
      <g
         id="g41">
        <path
           style="fill:#000000;stroke-width:0.0208333"
           id="path1"
           d="m 3.9999991,5.6543798 c 0,0.184095 -0.1492384,0.3333334 -0.3333333,0.3333334 -0.1840949,0 -0.3333333,-0.1492384 -0.3333333,-0.3333334 0,-0.1840949 0.1492384,-0.3333333 0.3333333,-0.3333333 0.1840949,0 0.3333333,0.1492384 0.3333333,0.3333333 z m 2.6666669,0 c 0,0.184095 0.1492384,0.3333334 0.3333333,0.3333334 0.1840949,0 0.3333333,-0.1492384 0.3333333,-0.3333334 0,-0.1840949 -0.1492384,-0.3333333 -0.3333333,-0.3333333 -0.1840949,0 -0.3333333,0.1492384 -0.3333333,0.3333333 z"
           transform="translate(9.5367443e-7,-1.1543795)" />
        <ellipse
           style="fill:#ffffff;stroke-width:0.0208333"
           id="path39"
           transform="translate(-0.12131372,-1.2958006)"
           cx="3.6789446"
           cy="5.654387"
           rx="0.10903591"
           ry="0.14141369" />
        <ellipse
           style="fill:#ffffff;stroke-width:0.0208333"
           id="ellipse42"
           transform="translate(-0.12131372,-1.2958006)"
           cx="3.6789446"
           cy="5.654387"
           rx="0.10903591"
           ry="0.14141369" />
        <ellipse
           style="fill:#ffffff;stroke-width:0.0208333"
           id="path39-8"
           cx="6.8909645"
           cy="4.3585863"
           rx="0.10903591"
           ry="0.14141369" />
      </g>
      <path
         style="display:none;fill:#000000;fill-opacity:1;stroke-width:0.0208333"
         id="rect4"
         height="0.16666664"
         x="3.0000002"
         y="5.5"
         width="0.99999982"
         d="M 3.0000002,5.5 H 4.0000001 V 5.6666666 H 3.0000002 Z M 7.4999189,5.0983364 6.5157279,5.2754456 6.5452461,5.4394775 7.5294372,5.2623682 Z"
         transform="rotate(5.1007149,19.800068,5.588852)" />
      <path
         style="fill:#d2e0e4;fill-opacity:1;stroke-width:0.124331"
         d="m 5.9582874,2.7283804 c -0.3333334,-1 -1.6613662,-0.8866666 -1.6613662,-0.8866666 0,0 0.3333329,0.1340625 0.6666662,0.8007291 0.1283772,0.2567544 0.1666672,0.085937 0.1666672,0.085937 z"
         id="path42" />
    </g>
    <g
       id="g31"
       style="display:inline">
      <path
         style="fill:#d35f5f;fill-opacity:1;stroke-width:0.124331"
         d="m 4.0000007,4.0000003 c 0,-0.6666667 -1.333334,-2.0000002 -2.6666667,-1.3333333 -1.00000066,0.6666664 -1.00000066,2.3333331 -6e-7,2.9999998 0.7844646,0.5229764 1.4093888,0.1968704 2,0 z m 2.6666656,0 c 0,-0.6666667 1.333334,-2.0000002 2.6666667,-1.3333333 1.000001,0.6666664 1.000001,2.3333331 6e-7,2.9999998 -0.7844646,0.5229764 -1.4093888,0.1968704 -2,0 z"
         id="path13"
         transform="translate(0,-1.333326)" />
      <path
         style="display:inline;fill:#a02c2c;fill-opacity:1;stroke-width:0.124331"
         d="M 4.0674605,4.5000002 C 3.1507938,3.0769566 1.6666667,3.3333334 1.6666667,4.3333335 c 0,1.3333333 1.7896826,1.3051017 2.0952382,0.7358842 z m 3.0555555,0 C 8.0396827,3.0769566 9.5238098,3.3333334 9.5238098,4.3333335 c 0,1.3333333 -1.7896826,1.3051017 -2.0952382,0.7358842 z"
         id="path17"
         transform="matrix(1.0909091,0,0,1.1711986,-0.77056285,-2.2703866)" />
      <path
         style="display:inline;fill:#d35f5f;fill-opacity:1;stroke-width:0.150144"
         d="m 5.3333329,3.3333331 c -2.3333328,3e-7 -2.6666656,2.6666673 -2.6666656,2.6666673 -6e-7,0.6666665 0,2.0000001 2.6666668,2.0000001 z m 1.2e-6,0 c 2.3333328,3e-7 2.6666656,2.6666673 2.6666656,2.6666673 6e-7,0.6666665 0,2.0000001 -2.6666668,2.0000001 z"
         id="path19"
         transform="translate(0,-1.333326)" />
      <path
         style="display:inline;fill:#501616;fill-opacity:1;stroke-width:0.124331"
         d="m 5.3333335,5.0000001 c -0.3333334,0 -0.6666667,0.3333334 -0.6666667,1.3333334 0,0.3333334 0,0.6666667 0.6666667,0.6666667 z m 0,0 c 0.3333334,0 0.6666667,0.3333334 0.6666667,1.3333334 0,0.3333334 0,0.6666667 -0.6666667,0.6666667 z"
         id="path22"
         transform="translate(0,-1.333326)" />
      <g
         id="g27">
        <path
           style="fill:#000000;stroke-width:0.0208333"
           id="path25"
           d="m 3.9999991,5.6543798 c 0,0.184095 -0.1492384,0.3333334 -0.3333333,0.3333334 -0.1840949,0 -0.3333333,-0.1492384 -0.3333333,-0.3333334 0,-0.1840949 0.1492384,-0.3333333 0.3333333,-0.3333333 0.1840949,0 0.3333333,0.1492384 0.3333333,0.3333333 z m 2.6666669,0 c 0,0.184095 0.1492384,0.3333334 0.3333333,0.3333334 0.1840949,0 0.3333333,-0.1492384 0.3333333,-0.3333334 0,-0.1840949 -0.1492384,-0.3333333 -0.3333333,-0.3333333 -0.1840949,0 -0.3333333,0.1492384 -0.3333333,0.3333333 z"
           transform="translate(9.5367443e-7,-1.1543795)" />
        <ellipse
           style="fill:#ffffff;stroke-width:0.0208333"
           id="ellipse25"
           transform="translate(-0.12131372,-1.2958006)"
           cx="3.6789446"
           cy="5.654387"
           rx="0.10903591"
           ry="0.14141369" />
        <ellipse
           style="fill:#ffffff;stroke-width:0.0208333"
           id="ellipse26"
           transform="translate(-0.12131372,-1.2958006)"
           cx="3.6789446"
           cy="5.654387"
           rx="0.10903591"
           ry="0.14141369" />
        <ellipse
           style="fill:#ffffff;stroke-width:0.0208333"
           id="ellipse27"
           cx="6.8909645"
           cy="4.3585863"
           rx="0.10903591"
           ry="0.14141369" />
      </g>
      <path
         style="display:inline;fill:#000000;fill-opacity:1;stroke-width:0.0208333"
         id="path27"
         height="0.16666664"
         x="3.0000002"
         y="5.5"
         width="0.99999982"
         d="M 3.0000002,5.5 H 4.0000001 V 5.6666666 H 3.0000002 Z M 7.4999189,5.0983364 6.5157279,5.2754456 6.5452461,5.4394775 7.5294372,5.2623682 Z"
         transform="rotate(5.1007149,19.800068,5.588852)" />
      <path
         style="display:inline;fill:#d35f5f;fill-opacity:1;stroke-width:0.124331"
         d="M 4.838634,2.3333408 C 5.4079314,1.5 6.4125504,1.5709201 6.4125504,1.5709201 c 0,0 -0.2302137,0.073365 -0.563547,0.7400312 -0.1283772,0.2567544 -0.1823366,0.02239 -0.1823366,0.02239 z"
         id="path20" />
      <path
         style="fill:#d35f5f;fill-opacity:1;stroke-width:0.124331"
         d="m 5.9582874,2.7283804 c -0.3333334,-1 -1.6613662,-0.8866666 -1.6613662,-0.8866666 0,0 0.3333329,0.1340625 0.6666662,0.8007291 0.1283772,0.2567544 0.1666672,0.085937 0.1666672,0.085937 z"
         id="path31" />
    </g>
  </g>
  <g
     id="g71"
     transform="translate(-0.75323115,-0.96119685)"
     style="display:inline">
    <path
       id="path70"
       style="fill:#7798bd;fill-opacity:1;stroke-width:0.124331"
       d="M 6.9198981,6.4611971 6.5852592,6.9606581 7.0627884,7.2472508 C 7.3011136,7.3902833 7.0508073,7.7662918 7.5276551,8.0518294 7.7905094,8.2092272 8.151571,8.1120643 8.33404,7.8355961 8.5160779,7.559781 8.4517804,7.2092251 8.1904972,7.0518256 L 7.2413482,6.4800491 Z"
       transform="translate(-0.33333339,0.3333333)" />
    <path
       style="fill:#ffffff;fill-opacity:1;stroke-width:0.124331"
       d="M 7.836536,7.4162795 7.576191,7.4338499 7.2795314,7.2553061 7.5403704,7.2378998 Z"
       id="path71" />
  </g>
</svg>
